<?xml version="1.0" encoding="utf-8"?>
<!-- Generator: Adobe Illustrator 19.2.0, SVG Export Plug-In . SVG Version: 6.00 Build 0)  -->
<svg version="1.1" id="RAW_ICONS_-_SQUARE__x2F__ROUNDED__x2F__CIRCLE"
	 xmlns="http://www.w3.org/2000/svg" xmlns:xlink="http://www.w3.org/1999/xlink" x="0px" y="0px" viewBox="0 0 37.5 25"
	 style="enable-background:new 0 0 37.5 25;" xml:space="preserve">
<g>
	<path d="M25,2c5.8,0,10.5,4.7,10.5,10.5C35.5,18.3,30.8,23,25,23H12.5C6.7,23,2,18.3,2,12.5C2,6.7,6.7,2,12.5,2H25 M25,0H12.5
		C5.6,0,0,5.6,0,12.5v0C0,19.4,5.6,25,12.5,25H25c6.9,0,12.5-5.6,12.5-12.5v0C37.5,5.6,31.9,0,25,0L25,0z"/>
</g>
<path d="M23.7,10c0,0.1,0,0.2,0,0.3c0,3.4-2.6,7.3-7.3,7.3c-1.4,0-2.8-0.4-3.9-1.2c0.2,0,0.4,0,0.6,0c1.2,0,2.3-0.4,3.2-1.1
	c-1.1,0-2.1-0.8-2.4-1.8c0.2,0,0.3,0,0.5,0c0.2,0,0.5,0,0.7-0.1C13.9,13.3,13,12.3,13,11c0,0,0,0,0,0c0.3,0.2,0.7,0.3,1.2,0.3
	c-0.7-0.5-1.1-1.2-1.1-2.1c0-0.5,0.1-0.9,0.3-1.3c1.3,1.6,3.2,2.6,5.3,2.7c0-0.2-0.1-0.4-0.1-0.6c0-1.4,1.1-2.6,2.6-2.6
	c0.7,0,1.4,0.3,1.9,0.8c0.6-0.1,1.1-0.3,1.6-0.6c-0.2,0.6-0.6,1.1-1.1,1.4C24,9,24.5,8.8,25,8.6C24.7,9.1,24.2,9.6,23.7,10z"/>
</svg>
