<?xml version="1.0" encoding="utf-8"?>
<!-- Generator: Adobe Illustrator 19.2.0, SVG Export Plug-In . SVG Version: 6.00 Build 0)  -->
<svg version="1.1" id="Слой_1" xmlns="http://www.w3.org/2000/svg" xmlns:xlink="http://www.w3.org/1999/xlink" x="0px" y="0px"
	 viewBox="0 0 76.6 85.7" style="enable-background:new 0 0 76.6 85.7;" xml:space="preserve">
<style type="text/css">
</style>
<g>
	<path d="M66.4,71c0,5.8-4.7,10.5-10.5,10.5S45.4,76.8,45.4,71s4.7-10.5,10.5-10.5S66.4,65.2,66.4,71"/>
	<path d="M6.2,81.5v1h16.9c0.3,0,0.5-0.1,0.7-0.3c0.2-0.2,0.3-0.4,0.3-0.7v-70c0-0.3-0.1-0.5-0.3-0.7c-0.2-0.2-0.4-0.3-0.7-0.3H1
		c-0.3,0-0.5,0.1-0.7,0.3S0,11.3,0,11.6l5.3,70c0,0.5,0.5,0.9,1,0.9V81.5l1-0.1L2.1,12.5h20l0,68l-15.9,0L6.2,81.5l1-0.1L6.2,81.5z"
		/>
	<path d="M66.4,71h-1c0,2.6-1.1,5-2.8,6.7c-1.7,1.7-4.1,2.8-6.7,2.8c-2.6,0-5-1.1-6.7-2.8c-1.7-1.7-2.8-4.1-2.8-6.7
		c0-2.6,1.1-5,2.8-6.7c1.7-1.7,4.1-2.8,6.7-2.8c2.6,0,5,1.1,6.7,2.8c1.7,1.7,2.8,4.1,2.8,6.7H66.4h1c0-6.4-5.1-11.5-11.5-11.5
		c-6.4,0-11.5,5.1-11.5,11.5c0,6.4,5.1,11.5,11.5,11.5c6.4,0,11.5-5.1,11.5-11.5H66.4z"/>
	<path d="M54.2,80.5H24.1v-68h39.5l-7.2,48c-0.1,0.5,0.3,1.1,0.8,1.1c0.5,0.1,1.1-0.3,1.1-0.8l7.4-49.1c0-0.3,0-0.6-0.2-0.8
		s-0.5-0.3-0.8-0.3H23.1c-0.3,0-0.5,0.1-0.7,0.3c-0.2,0.2-0.3,0.4-0.3,0.7v70c0,0.3,0.1,0.5,0.3,0.7c0.2,0.2,0.4,0.3,0.7,0.3h31.1
		c0.6,0,1-0.4,1-1S54.8,80.5,54.2,80.5L54.2,80.5z"/>
	<path class="st0" d="M25.9,76.7c0.6,0,1.1,0.5,1.1,1.1c0,0.6-0.5,1.1-1.1,1.1c-0.6,0-1.1-0.5-1.1-1.1
		C24.8,77.3,25.3,76.7,25.9,76.7"/>
	<path class="st0" d="M25.9,72.2c0.6,0,1.1,0.5,1.1,1.1c0,0.6-0.5,1.1-1.1,1.1c-0.6,0-1.1-0.5-1.1-1.1
		C24.8,72.8,25.3,72.2,25.9,72.2"/>
	<path class="st0" d="M25.9,67.7c0.6,0,1.1,0.5,1.1,1.1c0,0.6-0.5,1.1-1.1,1.1c-0.6,0-1.1-0.5-1.1-1.1
		C24.8,68.3,25.3,67.7,25.9,67.7"/>
	<path class="st0" d="M25.9,63.2c0.6,0,1.1,0.5,1.1,1.1c0,0.6-0.5,1.1-1.1,1.1c-0.6,0-1.1-0.5-1.1-1.1
		C24.8,63.8,25.3,63.2,25.9,63.2"/>
	<path class="st0" d="M25.9,58.7c0.6,0,1.1,0.5,1.1,1.1c0,0.6-0.5,1.1-1.1,1.1c-0.6,0-1.1-0.5-1.1-1.1
		C24.8,59.3,25.3,58.7,25.9,58.7"/>
	<path class="st0" d="M30.4,76.7c0.6,0,1.1,0.5,1.1,1.1c0,0.6-0.5,1.1-1.1,1.1c-0.6,0-1.1-0.5-1.1-1.1
		C29.3,77.3,29.8,76.7,30.4,76.7"/>
	<path class="st0" d="M30.4,72.2c0.6,0,1.1,0.5,1.1,1.1c0,0.6-0.5,1.1-1.1,1.1c-0.6,0-1.1-0.5-1.1-1.1
		C29.3,72.8,29.8,72.2,30.4,72.2"/>
	<path class="st0" d="M30.4,67.7c0.6,0,1.1,0.5,1.1,1.1c0,0.6-0.5,1.1-1.1,1.1c-0.6,0-1.1-0.5-1.1-1.1
		C29.3,68.3,29.8,67.7,30.4,67.7"/>
	<path class="st0" d="M30.4,63.2c0.6,0,1.1,0.5,1.1,1.1c0,0.6-0.5,1.1-1.1,1.1c-0.6,0-1.1-0.5-1.1-1.1
		C29.3,63.8,29.8,63.2,30.4,63.2"/>
	<path class="st0" d="M30.4,58.7c0.6,0,1.1,0.5,1.1,1.1c0,0.6-0.5,1.1-1.1,1.1c-0.6,0-1.1-0.5-1.1-1.1
		C29.3,59.3,29.8,58.7,30.4,58.7"/>
	<path class="st0" d="M34.9,76.7c0.6,0,1.1,0.5,1.1,1.1c0,0.6-0.5,1.1-1.1,1.1c-0.6,0-1.1-0.5-1.1-1.1
		C33.8,77.3,34.3,76.7,34.9,76.7"/>
	<path class="st0" d="M34.9,72.2c0.6,0,1.1,0.5,1.1,1.1c0,0.6-0.5,1.1-1.1,1.1c-0.6,0-1.1-0.5-1.1-1.1
		C33.8,72.8,34.3,72.2,34.9,72.2"/>
	<path class="st0" d="M34.9,67.7c0.6,0,1.1,0.5,1.1,1.1c0,0.6-0.5,1.1-1.1,1.1c-0.6,0-1.1-0.5-1.1-1.1
		C33.8,68.3,34.3,67.7,34.9,67.7"/>
	<path class="st0" d="M34.9,63.2c0.6,0,1.1,0.5,1.1,1.1c0,0.6-0.5,1.1-1.1,1.1c-0.6,0-1.1-0.5-1.1-1.1
		C33.8,63.8,34.3,63.2,34.9,63.2"/>
	<path class="st0" d="M34.9,58.7c0.6,0,1.1,0.5,1.1,1.1c0,0.6-0.5,1.1-1.1,1.1c-0.6,0-1.1-0.5-1.1-1.1
		C33.8,59.3,34.3,58.7,34.9,58.7"/>
	<path class="st0" d="M39.4,76.7c0.6,0,1.1,0.5,1.1,1.1c0,0.6-0.5,1.1-1.1,1.1c-0.6,0-1.1-0.5-1.1-1.1
		C38.3,77.3,38.8,76.7,39.4,76.7"/>
	<path class="st0" d="M39.4,72.2c0.6,0,1.1,0.5,1.1,1.1c0,0.6-0.5,1.1-1.1,1.1c-0.6,0-1.1-0.5-1.1-1.1
		C38.3,72.8,38.8,72.2,39.4,72.2"/>
	<path class="st0" d="M39.4,67.7c0.6,0,1.1,0.5,1.1,1.1c0,0.6-0.5,1.1-1.1,1.1c-0.6,0-1.1-0.5-1.1-1.1
		C38.3,68.3,38.8,67.7,39.4,67.7"/>
	<path class="st0" d="M39.4,63.2c0.6,0,1.1,0.5,1.1,1.1c0,0.6-0.5,1.1-1.1,1.1c-0.6,0-1.1-0.5-1.1-1.1
		C38.3,63.8,38.8,63.2,39.4,63.2"/>
	<path class="st0" d="M39.4,58.7c0.6,0,1.1,0.5,1.1,1.1c0,0.6-0.5,1.1-1.1,1.1c-0.6,0-1.1-0.5-1.1-1.1
		C38.3,59.3,38.8,58.7,39.4,58.7"/>
	<path class="st0" d="M43.9,76.7c0.6,0,1.1,0.5,1.1,1.1c0,0.6-0.5,1.1-1.1,1.1c-0.6,0-1.1-0.5-1.1-1.1
		C42.8,77.3,43.3,76.7,43.9,76.7"/>
	<path class="st0" d="M43.9,72.2c0.6,0,1.1,0.5,1.1,1.1c0,0.6-0.5,1.1-1.1,1.1c-0.6,0-1.1-0.5-1.1-1.1
		C42.8,72.8,43.3,72.2,43.9,72.2"/>
	<path class="st0" d="M43.9,67.7c0.6,0,1.1,0.5,1.1,1.1c0,0.6-0.5,1.1-1.1,1.1c-0.6,0-1.1-0.5-1.1-1.1
		C42.8,68.3,43.3,67.7,43.9,67.7"/>
	<path class="st0" d="M43.9,63.2c0.6,0,1.1,0.5,1.1,1.1c0,0.6-0.5,1.1-1.1,1.1c-0.6,0-1.1-0.5-1.1-1.1
		C42.8,63.8,43.3,63.2,43.9,63.2"/>
	<path class="st0" d="M43.9,58.7c0.6,0,1.1,0.5,1.1,1.1c0,0.6-0.5,1.1-1.1,1.1c-0.6,0-1.1-0.5-1.1-1.1
		C42.8,59.3,43.3,58.7,43.9,58.7"/>
	<path class="st0" d="M48.4,58.7c0.6,0,1.1,0.5,1.1,1.1c0,0.6-0.5,1.1-1.1,1.1c-0.6,0-1.1-0.5-1.1-1.1
		C47.3,59.3,47.8,58.7,48.4,58.7"/>
	<path class="st0" d="M52.9,58.7c0.6,0,1.1,0.5,1.1,1.1c0,0.6-0.5,1.1-1.1,1.1c-0.6,0-1.1-0.5-1.1-1.1
		C51.8,59.3,52.3,58.7,52.9,58.7"/>
	<path class="st0" d="M57.4,58.7c0.6,0,1.1,0.5,1.1,1.1c0,0.6-0.5,1.1-1.1,1.1c-0.6,0-1.1-0.5-1.1-1.1
		C56.3,59.3,56.8,58.7,57.4,58.7"/>
	<path class="st0" d="M25.9,54.1c0.6,0,1.1,0.5,1.1,1.1c0,0.6-0.5,1.1-1.1,1.1c-0.6,0-1.1-0.5-1.1-1.1
		C24.8,54.6,25.3,54.1,25.9,54.1"/>
	<path class="st0" d="M25.9,49.6c0.6,0,1.1,0.5,1.1,1.1c0,0.6-0.5,1.1-1.1,1.1c-0.6,0-1.1-0.5-1.1-1.1
		C24.8,50.1,25.3,49.6,25.9,49.6"/>
	<path class="st0" d="M25.9,45.1c0.6,0,1.1,0.5,1.1,1.1c0,0.6-0.5,1.1-1.1,1.1c-0.6,0-1.1-0.5-1.1-1.1
		C24.8,45.6,25.3,45.1,25.9,45.1"/>
	<path class="st0" d="M25.9,40.6c0.6,0,1.1,0.5,1.1,1.1c0,0.6-0.5,1.1-1.1,1.1c-0.6,0-1.1-0.5-1.1-1.1
		C24.8,41.1,25.3,40.6,25.9,40.6"/>
	<path class="st0" d="M25.9,36.1c0.6,0,1.1,0.5,1.1,1.1c0,0.6-0.5,1.1-1.1,1.1c-0.6,0-1.1-0.5-1.1-1.1
		C24.8,36.6,25.3,36.1,25.9,36.1"/>
	<path class="st0" d="M25.9,31.6c0.6,0,1.1,0.5,1.1,1.1c0,0.6-0.5,1.1-1.1,1.1c-0.6,0-1.1-0.5-1.1-1.1
		C24.8,32.1,25.3,31.6,25.9,31.6"/>
	<path class="st0" d="M25.9,27.1c0.6,0,1.1,0.5,1.1,1.1c0,0.6-0.5,1.1-1.1,1.1c-0.6,0-1.1-0.5-1.1-1.1
		C24.8,27.6,25.3,27.1,25.9,27.1"/>
	<path class="st0" d="M25.9,22.6c0.6,0,1.1,0.5,1.1,1.1c0,0.6-0.5,1.1-1.1,1.1c-0.6,0-1.1-0.5-1.1-1.1
		C24.8,23.1,25.3,22.6,25.9,22.6"/>
	<path class="st0" d="M25.9,18.1c0.6,0,1.1,0.5,1.1,1.1c0,0.6-0.5,1.1-1.1,1.1c-0.6,0-1.1-0.5-1.1-1.1
		C24.8,18.6,25.3,18.1,25.9,18.1"/>
	<path class="st0" d="M25.9,13.6c0.6,0,1.1,0.5,1.1,1.1c0,0.6-0.5,1.1-1.1,1.1c-0.6,0-1.1-0.5-1.1-1.1
		C24.8,14.1,25.3,13.6,25.9,13.6"/>
	<path class="st0" d="M25.9,9.1c0.6,0,1.1,0.5,1.1,1.1c0,0.6-0.5,1.1-1.1,1.1c-0.6,0-1.1-0.5-1.1-1.1C24.8,9.6,25.3,9.1,25.9,9.1"/>
	<path class="st0" d="M30.4,54.1c0.6,0,1.1,0.5,1.1,1.1c0,0.6-0.5,1.1-1.1,1.1c-0.6,0-1.1-0.5-1.1-1.1
		C29.3,54.6,29.8,54.1,30.4,54.1"/>
	<path class="st0" d="M30.4,49.6c0.6,0,1.1,0.5,1.1,1.1c0,0.6-0.5,1.1-1.1,1.1c-0.6,0-1.1-0.5-1.1-1.1
		C29.3,50.1,29.8,49.6,30.4,49.6"/>
	<path class="st0" d="M30.4,45.1c0.6,0,1.1,0.5,1.1,1.1c0,0.6-0.5,1.1-1.1,1.1c-0.6,0-1.1-0.5-1.1-1.1
		C29.3,45.6,29.8,45.1,30.4,45.1"/>
	<path class="st0" d="M30.4,40.6c0.6,0,1.1,0.5,1.1,1.1c0,0.6-0.5,1.1-1.1,1.1c-0.6,0-1.1-0.5-1.1-1.1
		C29.3,41.1,29.8,40.6,30.4,40.6"/>
	<path class="st0" d="M30.4,36.1c0.6,0,1.1,0.5,1.1,1.1c0,0.6-0.5,1.1-1.1,1.1c-0.6,0-1.1-0.5-1.1-1.1
		C29.3,36.6,29.8,36.1,30.4,36.1"/>
	<path class="st0" d="M30.4,31.6c0.6,0,1.1,0.5,1.1,1.1c0,0.6-0.5,1.1-1.1,1.1c-0.6,0-1.1-0.5-1.1-1.1
		C29.3,32.1,29.8,31.6,30.4,31.6"/>
	<path class="st0" d="M30.4,27.1c0.6,0,1.1,0.5,1.1,1.1c0,0.6-0.5,1.1-1.1,1.1c-0.6,0-1.1-0.5-1.1-1.1
		C29.3,27.6,29.8,27.1,30.4,27.1"/>
	<path class="st0" d="M30.4,22.6c0.6,0,1.1,0.5,1.1,1.1c0,0.6-0.5,1.1-1.1,1.1c-0.6,0-1.1-0.5-1.1-1.1
		C29.3,23.1,29.8,22.6,30.4,22.6"/>
	<path class="st0" d="M30.4,18.1c0.6,0,1.1,0.5,1.1,1.1c0,0.6-0.5,1.1-1.1,1.1c-0.6,0-1.1-0.5-1.1-1.1
		C29.3,18.6,29.8,18.1,30.4,18.1"/>
	<path class="st0" d="M30.4,13.6c0.6,0,1.1,0.5,1.1,1.1c0,0.6-0.5,1.1-1.1,1.1c-0.6,0-1.1-0.5-1.1-1.1
		C29.3,14.1,29.8,13.6,30.4,13.6"/>
	<path class="st0" d="M30.4,9.1c0.6,0,1.1,0.5,1.1,1.1c0,0.6-0.5,1.1-1.1,1.1c-0.6,0-1.1-0.5-1.1-1.1C29.3,9.6,29.8,9.1,30.4,9.1"/>
	<path class="st0" d="M34.9,54.1c0.6,0,1.1,0.5,1.1,1.1c0,0.6-0.5,1.1-1.1,1.1c-0.6,0-1.1-0.5-1.1-1.1
		C33.8,54.6,34.3,54.1,34.9,54.1"/>
	<path class="st0" d="M34.9,49.6c0.6,0,1.1,0.5,1.1,1.1c0,0.6-0.5,1.1-1.1,1.1c-0.6,0-1.1-0.5-1.1-1.1
		C33.8,50.1,34.3,49.6,34.9,49.6"/>
	<path class="st0" d="M34.9,45.1c0.6,0,1.1,0.5,1.1,1.1c0,0.6-0.5,1.1-1.1,1.1c-0.6,0-1.1-0.5-1.1-1.1
		C33.8,45.6,34.3,45.1,34.9,45.1"/>
	<path class="st0" d="M34.9,40.6c0.6,0,1.1,0.5,1.1,1.1c0,0.6-0.5,1.1-1.1,1.1c-0.6,0-1.1-0.5-1.1-1.1
		C33.8,41.1,34.3,40.6,34.9,40.6"/>
	<path class="st0" d="M34.9,36.1c0.6,0,1.1,0.5,1.1,1.1c0,0.6-0.5,1.1-1.1,1.1c-0.6,0-1.1-0.5-1.1-1.1
		C33.8,36.6,34.3,36.1,34.9,36.1"/>
	<path class="st0" d="M34.9,31.6c0.6,0,1.1,0.5,1.1,1.1c0,0.6-0.5,1.1-1.1,1.1c-0.6,0-1.1-0.5-1.1-1.1
		C33.8,32.1,34.3,31.6,34.9,31.6"/>
	<path class="st0" d="M34.9,27.1c0.6,0,1.1,0.5,1.1,1.1c0,0.6-0.5,1.1-1.1,1.1c-0.6,0-1.1-0.5-1.1-1.1
		C33.8,27.6,34.3,27.1,34.9,27.1"/>
	<path class="st0" d="M34.9,22.6c0.6,0,1.1,0.5,1.1,1.1c0,0.6-0.5,1.1-1.1,1.1c-0.6,0-1.1-0.5-1.1-1.1
		C33.8,23.1,34.3,22.6,34.9,22.6"/>
	<path class="st0" d="M34.9,18.1c0.6,0,1.1,0.5,1.1,1.1c0,0.6-0.5,1.1-1.1,1.1c-0.6,0-1.1-0.5-1.1-1.1
		C33.8,18.6,34.3,18.1,34.9,18.1"/>
	<path class="st0" d="M34.9,13.6c0.6,0,1.1,0.5,1.1,1.1c0,0.6-0.5,1.1-1.1,1.1c-0.6,0-1.1-0.5-1.1-1.1
		C33.8,14.1,34.3,13.6,34.9,13.6"/>
	<path class="st0" d="M34.9,9.1c0.6,0,1.1,0.5,1.1,1.1c0,0.6-0.5,1.1-1.1,1.1c-0.6,0-1.1-0.5-1.1-1.1C33.8,9.6,34.3,9.1,34.9,9.1"/>
	<path class="st0" d="M39.4,54.1c0.6,0,1.1,0.5,1.1,1.1c0,0.6-0.5,1.1-1.1,1.1c-0.6,0-1.1-0.5-1.1-1.1
		C38.3,54.6,38.8,54.1,39.4,54.1"/>
	<path class="st0" d="M39.4,49.6c0.6,0,1.1,0.5,1.1,1.1c0,0.6-0.5,1.1-1.1,1.1c-0.6,0-1.1-0.5-1.1-1.1
		C38.3,50.1,38.8,49.6,39.4,49.6"/>
	<path class="st0" d="M39.4,40.6c0.6,0,1.1,0.5,1.1,1.1c0,0.6-0.5,1.1-1.1,1.1c-0.6,0-1.1-0.5-1.1-1.1
		C38.3,41.1,38.8,40.6,39.4,40.6"/>
	<path class="st0" d="M39.4,36.1c0.6,0,1.1,0.5,1.1,1.1c0,0.6-0.5,1.1-1.1,1.1c-0.6,0-1.1-0.5-1.1-1.1
		C38.3,36.6,38.8,36.1,39.4,36.1"/>
	<path class="st0" d="M39.4,31.6c0.6,0,1.1,0.5,1.1,1.1c0,0.6-0.5,1.1-1.1,1.1c-0.6,0-1.1-0.5-1.1-1.1
		C38.3,32.1,38.8,31.6,39.4,31.6"/>
	<path class="st0" d="M39.4,27.1c0.6,0,1.1,0.5,1.1,1.1c0,0.6-0.5,1.1-1.1,1.1c-0.6,0-1.1-0.5-1.1-1.1
		C38.3,27.6,38.8,27.1,39.4,27.1"/>
	<path class="st0" d="M39.4,22.6c0.6,0,1.1,0.5,1.1,1.1c0,0.6-0.5,1.1-1.1,1.1c-0.6,0-1.1-0.5-1.1-1.1
		C38.3,23.1,38.8,22.6,39.4,22.6"/>
	<path class="st0" d="M39.4,18.1c0.6,0,1.1,0.5,1.1,1.1c0,0.6-0.5,1.1-1.1,1.1c-0.6,0-1.1-0.5-1.1-1.1
		C38.3,18.6,38.8,18.1,39.4,18.1"/>
	<path class="st0" d="M39.4,13.6c0.6,0,1.1,0.5,1.1,1.1c0,0.6-0.5,1.1-1.1,1.1c-0.6,0-1.1-0.5-1.1-1.1
		C38.3,14.1,38.8,13.6,39.4,13.6"/>
	<path class="st0" d="M39.4,9.1c0.6,0,1.1,0.5,1.1,1.1c0,0.6-0.5,1.1-1.1,1.1c-0.6,0-1.1-0.5-1.1-1.1C38.3,9.6,38.8,9.1,39.4,9.1"/>
	<path class="st0" d="M43.9,54.1c0.6,0,1.1,0.5,1.1,1.1c0,0.6-0.5,1.1-1.1,1.1c-0.6,0-1.1-0.5-1.1-1.1
		C42.8,54.6,43.3,54.1,43.9,54.1"/>
	<path class="st0" d="M43.9,49.6c0.6,0,1.1,0.5,1.1,1.1c0,0.6-0.5,1.1-1.1,1.1c-0.6,0-1.1-0.5-1.1-1.1
		C42.8,50.1,43.3,49.6,43.9,49.6"/>
	<path class="st0" d="M43.9,45.1c0.6,0,1.1,0.5,1.1,1.1c0,0.6-0.5,1.1-1.1,1.1c-0.6,0-1.1-0.5-1.1-1.1
		C42.8,45.6,43.3,45.1,43.9,45.1"/>
	<path class="st0" d="M43.9,40.6c0.6,0,1.1,0.5,1.1,1.1c0,0.6-0.5,1.1-1.1,1.1c-0.6,0-1.1-0.5-1.1-1.1
		C42.8,41.1,43.3,40.6,43.9,40.6"/>
	<path class="st0" d="M43.9,36.1c0.6,0,1.1,0.5,1.1,1.1c0,0.6-0.5,1.1-1.1,1.1c-0.6,0-1.1-0.5-1.1-1.1
		C42.8,36.6,43.3,36.1,43.9,36.1"/>
	<path class="st0" d="M43.9,31.6c0.6,0,1.1,0.5,1.1,1.1c0,0.6-0.5,1.1-1.1,1.1c-0.6,0-1.1-0.5-1.1-1.1
		C42.8,32.1,43.3,31.6,43.9,31.6"/>
	<path class="st0" d="M43.9,27.1c0.6,0,1.1,0.5,1.1,1.1c0,0.6-0.5,1.1-1.1,1.1c-0.6,0-1.1-0.5-1.1-1.1
		C42.8,27.6,43.3,27.1,43.9,27.1"/>
	<path class="st0" d="M43.9,22.6c0.6,0,1.1,0.5,1.1,1.1c0,0.6-0.5,1.1-1.1,1.1c-0.6,0-1.1-0.5-1.1-1.1
		C42.8,23.1,43.3,22.6,43.9,22.6"/>
	<path class="st0" d="M43.9,18.1c0.6,0,1.1,0.5,1.1,1.1c0,0.6-0.5,1.1-1.1,1.1c-0.6,0-1.1-0.5-1.1-1.1
		C42.8,18.6,43.3,18.1,43.9,18.1"/>
	<path class="st0" d="M43.9,13.6c0.6,0,1.1,0.5,1.1,1.1c0,0.6-0.5,1.1-1.1,1.1c-0.6,0-1.1-0.5-1.1-1.1
		C42.8,14.1,43.3,13.6,43.9,13.6"/>
	<path class="st0" d="M43.9,9.1c0.6,0,1.1,0.5,1.1,1.1c0,0.6-0.5,1.1-1.1,1.1c-0.6,0-1.1-0.5-1.1-1.1C42.8,9.6,43.3,9.1,43.9,9.1"/>
	<path class="st0" d="M48.4,54.1c0.6,0,1.1,0.5,1.1,1.1c0,0.6-0.5,1.1-1.1,1.1c-0.6,0-1.1-0.5-1.1-1.1
		C47.3,54.6,47.8,54.1,48.4,54.1"/>
	<path class="st0" d="M48.4,49.6c0.6,0,1.1,0.5,1.1,1.1c0,0.6-0.5,1.1-1.1,1.1c-0.6,0-1.1-0.5-1.1-1.1
		C47.3,50.1,47.8,49.6,48.4,49.6"/>
	<path class="st0" d="M48.4,45.1c0.6,0,1.1,0.5,1.1,1.1c0,0.6-0.5,1.1-1.1,1.1c-0.6,0-1.1-0.5-1.1-1.1
		C47.3,45.6,47.8,45.1,48.4,45.1"/>
	<path class="st0" d="M48.4,40.6c0.6,0,1.1,0.5,1.1,1.1c0,0.6-0.5,1.1-1.1,1.1c-0.6,0-1.1-0.5-1.1-1.1
		C47.3,41.1,47.8,40.6,48.4,40.6"/>
	<path class="st0" d="M48.4,36.1c0.6,0,1.1,0.5,1.1,1.1c0,0.6-0.5,1.1-1.1,1.1c-0.6,0-1.1-0.5-1.1-1.1
		C47.3,36.6,47.8,36.1,48.4,36.1"/>
	<path class="st0" d="M48.4,31.6c0.6,0,1.1,0.5,1.1,1.1c0,0.6-0.5,1.1-1.1,1.1c-0.6,0-1.1-0.5-1.1-1.1
		C47.3,32.1,47.8,31.6,48.4,31.6"/>
	<path class="st0" d="M48.4,27.1c0.6,0,1.1,0.5,1.1,1.1c0,0.6-0.5,1.1-1.1,1.1c-0.6,0-1.1-0.5-1.1-1.1
		C47.3,27.6,47.8,27.1,48.4,27.1"/>
	<path class="st0" d="M48.4,22.6c0.6,0,1.1,0.5,1.1,1.1c0,0.6-0.5,1.1-1.1,1.1c-0.6,0-1.1-0.5-1.1-1.1
		C47.3,23.1,47.8,22.6,48.4,22.6"/>
	<path class="st0" d="M48.4,18.1c0.6,0,1.1,0.5,1.1,1.1c0,0.6-0.5,1.1-1.1,1.1c-0.6,0-1.1-0.5-1.1-1.1
		C47.3,18.6,47.8,18.1,48.4,18.1"/>
	<path class="st0" d="M48.4,13.6c0.6,0,1.1,0.5,1.1,1.1c0,0.6-0.5,1.1-1.1,1.1c-0.6,0-1.1-0.5-1.1-1.1
		C47.3,14.1,47.8,13.6,48.4,13.6"/>
	<path class="st0" d="M48.4,9.1c0.6,0,1.1,0.5,1.1,1.1c0,0.6-0.5,1.1-1.1,1.1c-0.6,0-1.1-0.5-1.1-1.1C47.3,9.6,47.8,9.1,48.4,9.1"/>
	<path class="st0" d="M52.9,54.1c0.6,0,1.1,0.5,1.1,1.1c0,0.6-0.5,1.1-1.1,1.1c-0.6,0-1.1-0.5-1.1-1.1
		C51.8,54.6,52.3,54.1,52.9,54.1"/>
	<path class="st0" d="M52.9,49.6c0.6,0,1.1,0.5,1.1,1.1c0,0.6-0.5,1.1-1.1,1.1c-0.6,0-1.1-0.5-1.1-1.1
		C51.8,50.1,52.3,49.6,52.9,49.6"/>
	<path class="st0" d="M52.9,45.1c0.6,0,1.1,0.5,1.1,1.1c0,0.6-0.5,1.1-1.1,1.1c-0.6,0-1.1-0.5-1.1-1.1
		C51.8,45.6,52.3,45.1,52.9,45.1"/>
	<path class="st0" d="M52.9,40.6c0.6,0,1.1,0.5,1.1,1.1c0,0.6-0.5,1.1-1.1,1.1c-0.6,0-1.1-0.5-1.1-1.1
		C51.8,41.1,52.3,40.6,52.9,40.6"/>
	<path class="st0" d="M52.9,36.1c0.6,0,1.1,0.5,1.1,1.1c0,0.6-0.5,1.1-1.1,1.1c-0.6,0-1.1-0.5-1.1-1.1
		C51.8,36.6,52.3,36.1,52.9,36.1"/>
	<path class="st0" d="M52.9,31.6c0.6,0,1.1,0.5,1.1,1.1c0,0.6-0.5,1.1-1.1,1.1c-0.6,0-1.1-0.5-1.1-1.1
		C51.8,32.1,52.3,31.6,52.9,31.6"/>
	<path class="st0" d="M52.9,27.1c0.6,0,1.1,0.5,1.1,1.1c0,0.6-0.5,1.1-1.1,1.1c-0.6,0-1.1-0.5-1.1-1.1
		C51.8,27.6,52.3,27.1,52.9,27.1"/>
	<path class="st0" d="M52.9,22.6c0.6,0,1.1,0.5,1.1,1.1c0,0.6-0.5,1.1-1.1,1.1c-0.6,0-1.1-0.5-1.1-1.1
		C51.8,23.1,52.3,22.6,52.9,22.6"/>
	<path class="st0" d="M52.9,18.1c0.6,0,1.1,0.5,1.1,1.1c0,0.6-0.5,1.1-1.1,1.1c-0.6,0-1.1-0.5-1.1-1.1
		C51.8,18.6,52.3,18.1,52.9,18.1"/>
	<path class="st0" d="M52.9,13.6c0.6,0,1.1,0.5,1.1,1.1c0,0.6-0.5,1.1-1.1,1.1c-0.6,0-1.1-0.5-1.1-1.1
		C51.8,14.1,52.3,13.6,52.9,13.6"/>
	<path class="st0" d="M52.9,9.1c0.6,0,1.1,0.5,1.1,1.1c0,0.6-0.5,1.1-1.1,1.1c-0.6,0-1.1-0.5-1.1-1.1C51.8,9.6,52.3,9.1,52.9,9.1"/>
	<path class="st0" d="M57.4,54.1c0.6,0,1.1,0.5,1.1,1.1c0,0.6-0.5,1.1-1.1,1.1c-0.6,0-1.1-0.5-1.1-1.1
		C56.3,54.6,56.8,54.1,57.4,54.1"/>
	<path class="st0" d="M57.4,49.6c0.6,0,1.1,0.5,1.1,1.1c0,0.6-0.5,1.1-1.1,1.1c-0.6,0-1.1-0.5-1.1-1.1
		C56.3,50.1,56.8,49.6,57.4,49.6"/>
	<path class="st0" d="M57.4,45.1c0.6,0,1.1,0.5,1.1,1.1c0,0.6-0.5,1.1-1.1,1.1c-0.6,0-1.1-0.5-1.1-1.1
		C56.3,45.6,56.8,45.1,57.4,45.1"/>
	<path class="st0" d="M57.4,40.6c0.6,0,1.1,0.5,1.1,1.1c0,0.6-0.5,1.1-1.1,1.1c-0.6,0-1.1-0.5-1.1-1.1
		C56.3,41.1,56.8,40.6,57.4,40.6"/>
	<path class="st0" d="M57.4,36.1c0.6,0,1.1,0.5,1.1,1.1c0,0.6-0.5,1.1-1.1,1.1c-0.6,0-1.1-0.5-1.1-1.1
		C56.3,36.6,56.8,36.1,57.4,36.1"/>
	<path class="st0" d="M57.4,31.6c0.6,0,1.1,0.5,1.1,1.1c0,0.6-0.5,1.1-1.1,1.1c-0.6,0-1.1-0.5-1.1-1.1
		C56.3,32.1,56.8,31.6,57.4,31.6"/>
	<path class="st0" d="M57.4,27.1c0.6,0,1.1,0.5,1.1,1.1c0,0.6-0.5,1.1-1.1,1.1c-0.6,0-1.1-0.5-1.1-1.1
		C56.3,27.6,56.8,27.1,57.4,27.1"/>
	<path class="st0" d="M57.4,22.6c0.6,0,1.1,0.5,1.1,1.1c0,0.6-0.5,1.1-1.1,1.1c-0.6,0-1.1-0.5-1.1-1.1
		C56.3,23.1,56.8,22.6,57.4,22.6"/>
	<path class="st0" d="M57.4,18.1c0.6,0,1.1,0.5,1.1,1.1c0,0.6-0.5,1.1-1.1,1.1c-0.6,0-1.1-0.5-1.1-1.1
		C56.3,18.6,56.8,18.1,57.4,18.1"/>
	<path class="st0" d="M57.4,13.6c0.6,0,1.1,0.5,1.1,1.1c0,0.6-0.5,1.1-1.1,1.1c-0.6,0-1.1-0.5-1.1-1.1
		C56.3,14.1,56.8,13.6,57.4,13.6"/>
	<path class="st0" d="M57.4,9.1c0.6,0,1.1,0.5,1.1,1.1c0,0.6-0.5,1.1-1.1,1.1c-0.6,0-1.1-0.5-1.1-1.1C56.3,9.6,56.8,9.1,57.4,9.1"/>
	<path class="st0" d="M61.9,27.1c0.6,0,1.1,0.5,1.1,1.1c0,0.6-0.5,1.1-1.1,1.1c-0.6,0-1.1-0.5-1.1-1.1
		C60.8,27.6,61.3,27.1,61.9,27.1"/>
	<path class="st0" d="M61.9,22.6c0.6,0,1.1,0.5,1.1,1.1c0,0.6-0.5,1.1-1.1,1.1c-0.6,0-1.1-0.5-1.1-1.1
		C60.8,23.1,61.3,22.6,61.9,22.6"/>
	<path class="st0" d="M61.9,18.1c0.6,0,1.1,0.5,1.1,1.1c0,0.6-0.5,1.1-1.1,1.1c-0.6,0-1.1-0.5-1.1-1.1
		C60.8,18.6,61.3,18.1,61.9,18.1"/>
	<path class="st0" d="M61.9,13.6c0.6,0,1.1,0.5,1.1,1.1c0,0.6-0.5,1.1-1.1,1.1c-0.6,0-1.1-0.5-1.1-1.1
		C60.8,14.1,61.3,13.6,61.9,13.6"/>
	<path class="st0" d="M61.9,9.1c0.6,0,1.1,0.5,1.1,1.1c0,0.6-0.5,1.1-1.1,1.1c-0.6,0-1.1-0.5-1.1-1.1C60.8,9.6,61.3,9.1,61.9,9.1"/>
	<path class="st0" d="M66.4,13.6c0.6,0,1.1,0.5,1.1,1.1c0,0.6-0.5,1.1-1.1,1.1c-0.6,0-1.1-0.5-1.1-1.1
		C65.3,14.1,65.8,13.6,66.4,13.6"/>
	<path class="st0" d="M70.9,13.6c0.6,0,1.1,0.5,1.1,1.1c0,0.6-0.5,1.1-1.1,1.1c-0.6,0-1.1-0.5-1.1-1.1
		C69.8,14.1,70.3,13.6,70.9,13.6"/>
	<path class="st0" d="M39.4,45.1c0.6,0,1.1,0.5,1.1,1.1s-0.5,1.1-1.1,1.1s-1.1-0.5-1.1-1.1S38.8,45.1,39.4,45.1"/>
	<path class="st0" d="M25.9,4.5c0.6,0,1.1,0.5,1.1,1.1c0,0.6-0.5,1.1-1.1,1.1c-0.6,0-1.1-0.5-1.1-1.1C24.8,5,25.3,4.5,25.9,4.5"/>
	<path class="st0" d="M30.4,4.5c0.6,0,1.1,0.5,1.1,1.1c0,0.6-0.5,1.1-1.1,1.1c-0.6,0-1.1-0.5-1.1-1.1C29.3,5,29.8,4.5,30.4,4.5"/>
	<path class="st0" d="M34.9,4.5c0.6,0,1.1,0.5,1.1,1.1c0,0.6-0.5,1.1-1.1,1.1c-0.6,0-1.1-0.5-1.1-1.1C33.8,5,34.3,4.5,34.9,4.5"/>
	<path class="st0" d="M39.4,4.5c0.6,0,1.1,0.5,1.1,1.1c0,0.6-0.5,1.1-1.1,1.1c-0.6,0-1.1-0.5-1.1-1.1C38.3,5,38.8,4.5,39.4,4.5"/>
	<path class="st0" d="M43.9,4.5c0.6,0,1.1,0.5,1.1,1.1c0,0.6-0.5,1.1-1.1,1.1c-0.6,0-1.1-0.5-1.1-1.1C42.8,5,43.3,4.5,43.9,4.5"/>
	<path class="st0" d="M48.4,4.5c0.6,0,1.1,0.5,1.1,1.1c0,0.6-0.5,1.1-1.1,1.1c-0.6,0-1.1-0.5-1.1-1.1C47.3,5,47.8,4.5,48.4,4.5"/>
	<path class="st0" d="M52.9,4.5c0.6,0,1.1,0.5,1.1,1.1c0,0.6-0.5,1.1-1.1,1.1c-0.6,0-1.1-0.5-1.1-1.1C51.8,5,52.3,4.5,52.9,4.5"/>
	<path class="st0" d="M57.4,4.5c0.6,0,1.1,0.5,1.1,1.1c0,0.6-0.5,1.1-1.1,1.1c-0.6,0-1.1-0.5-1.1-1.1C56.3,5,56.8,4.5,57.4,4.5"/>
	<path class="st0" d="M61.9,4.5c0.6,0,1.1,0.5,1.1,1.1c0,0.6-0.5,1.1-1.1,1.1c-0.6,0-1.1-0.5-1.1-1.1C60.8,5,61.3,4.5,61.9,4.5"/>
	<path d="M64.7,11.5h5.3c1.3,0,2.3,1,2.3,2.3v1.9c0,0.4-0.3,0.7-0.7,0.7H64L64.7,11.5z"/>
	<path d="M64.7,11.5v1h5.3c0.7,0,1.3,0.6,1.3,1.3v1.9h0.3v-0.3c-0.2,0-0.3,0.1-0.3,0.3h0.3v-0.3h-6.5l0.6-3.7L64.7,11.5v1V11.5
		l-1-0.1L63,16.2c0,0.3,0,0.6,0.2,0.8s0.5,0.3,0.8,0.3h7.7c0.9,0,1.7-0.8,1.7-1.7v-1.9c0-1.8-1.5-3.3-3.3-3.3h-5.3
		c-0.5,0-0.9,0.4-1,0.9L64.7,11.5z"/>
	<path d="M59.6,4.5L26.1,6.9c-1.7,0.1-3,1.5-3,3.2v1.3h41.6V9.3C64.7,6.5,62.4,4.3,59.6,4.5"/>
	<path d="M59.6,4.5l-0.1-1L26.1,5.9l0,0c-2.2,0.2-3.9,2-3.9,4.2v1.3c0,0.3,0.1,0.5,0.3,0.7c0.2,0.2,0.4,0.3,0.7,0.3h41.6
		c0.3,0,0.5-0.1,0.7-0.3c0.2-0.2,0.3-0.4,0.3-0.7V9.3c0-3.2-2.6-5.8-5.8-5.8c-0.1,0-0.3,0-0.4,0L59.6,4.5l0.1,1c0.1,0,0.2,0,0.3,0
		c1,0,2,0.4,2.7,1.1c0.7,0.7,1.1,1.6,1.1,2.7v1.2H24.1l0-0.3C24.1,9,25,8,26.2,7.9l0,0l33.4-2.4L59.6,4.5z"/>
	<path d="M32.2,4.5l-0.1-1L3.9,5.9l0.1,1l-0.1-1C1.7,6.1,0,7.9,0,10.2v1.3c0,0.3,0.1,0.5,0.3,0.7c0.2,0.2,0.4,0.3,0.7,0.3h36.4
		c0.1,0,0.2,0,0.3,0l23.6-7c0.5-0.1,0.8-0.6,0.7-1.1c-0.1-0.5-0.5-0.9-1-0.9l-28.8,0l-0.1,0L32.2,4.5l0,1l21.9,0l-16.9,5H2l0-0.3
		C2,9,2.9,8,4.1,7.9l0,0l28.2-2.4L32.2,4.5l0,1L32.2,4.5z"/>
</g>
</svg>
