<?xml version="1.0" encoding="utf-8"?>
<!-- Generator: Adobe Illustrator 19.2.0, SVG Export Plug-In . SVG Version: 6.00 Build 0)  -->
<svg version="1.1" id="RAW_ICONS_-_SQUARE__x2F__ROUNDED__x2F__CIRCLE"
	 xmlns="http://www.w3.org/2000/svg" xmlns:xlink="http://www.w3.org/1999/xlink" x="0px" y="0px" viewBox="0 0 37.5 25"
	 style="enable-background:new 0 0 37.5 25;" xml:space="preserve">
<path d="M26.2,9.5c0,0-0.1-1-0.6-1.5c-0.6-0.6-1.2-0.6-1.5-0.6c-2.1-0.2-5.3-0.2-5.3-0.2h0c0,0-3.2,0-5.3,0.2c-0.3,0-0.9,0-1.5,0.6
	c-0.5,0.5-0.6,1.5-0.6,1.5s-0.2,1.2-0.2,2.5v1.2c0,1.2,0.2,2.5,0.2,2.5s0.1,1,0.6,1.5c0.6,0.6,1.3,0.6,1.7,0.6
	c1.2,0.1,5.2,0.2,5.2,0.2s3.2,0,5.3-0.2c0.3,0,0.9,0,1.5-0.6c0.5-0.5,0.6-1.5,0.6-1.5s0.2-1.2,0.2-2.5v-1.2
	C26.3,10.7,26.2,9.5,26.2,9.5z M17.2,14.5l0-4.3l4.1,2.1L17.2,14.5z"/>
<g>
	<path d="M25,2c5.8,0,10.5,4.7,10.5,10.5C35.5,18.3,30.8,23,25,23H12.5C6.7,23,2,18.3,2,12.5C2,6.7,6.7,2,12.5,2H25 M25,0H12.5
		C5.6,0,0,5.6,0,12.5v0C0,19.4,5.6,25,12.5,25H25c6.9,0,12.5-5.6,12.5-12.5v0C37.5,5.6,31.9,0,25,0L25,0z"/>
</g>
</svg>
